<svg xmlns="http://www.w3.org/2000/svg" width="1600" height="900" viewBox="0 0 1600 900">
<rect width="1600" height="900" fill="#0b1116"/><rect x="60" y="55" width="1480" height="790" rx="36" fill="#121a21" stroke="#27343d"/>
<text x="110" y="125" fill="#f2c811" font-size="28" font-family="Arial" font-weight="700">DAY 5 • DAX</text>
<text x="110" y="185" fill="#fff" font-size="58" font-family="Arial" font-weight="800">Build Measures from Measures with DIVIDE</text>
<text x="110" y="230" fill="#9eb0bc" font-size="27" font-family="Arial">Reuse your logic • Handle zero / blank denominator more safely</text>
<rect x="170" y="340" width="430" height="180" rx="26" fill="#0d292b" stroke="#099999" stroke-width="3"/><text x="385" y="395" text-anchor="middle" fill="#6edbd7" font-size="30" font-family="Arial" font-weight="800">[Total Revenue]</text><text x="385" y="455" text-anchor="middle" fill="#fff" font-size="38" font-family="Arial" font-weight="800">4.8M</text>
<rect x="1000" y="340" width="430" height="180" rx="26" fill="#171f25" stroke="#52636e" stroke-width="3"/><text x="1215" y="395" text-anchor="middle" fill="#fff" font-size="30" font-family="Arial" font-weight="800">[Transactions]</text><text x="1215" y="455" text-anchor="middle" fill="#fff" font-size="38" font-family="Arial" font-weight="800">40,000</text>
<path d="M600 430 L700 520" stroke="#71838d" stroke-width="6"/><path d="M1000 430 L900 520" stroke="#71838d" stroke-width="6"/>
<rect x="650" y="505" width="300" height="110" rx="24" fill="#211f12" stroke="#f2c811" stroke-width="3"/><text x="800" y="570" text-anchor="middle" fill="#f2c811" font-size="38" font-family="Arial" font-weight="800">DIVIDE</text>
<path d="M800 615 L800 680" stroke="#71838d" stroke-width="6"/><polygon points="800,700 780,670 820,670" fill="#71838d"/>
<rect x="525" y="700" width="550" height="95" rx="22" fill="#0d292b" stroke="#099999" stroke-width="3"/><text x="800" y="740" text-anchor="middle" fill="#6edbd7" font-size="26" font-family="Arial" font-weight="800">Average Transaction Value</text><text x="800" y="778" text-anchor="middle" fill="#fff" font-size="28" font-family="Arial">DIVIDE([Total Revenue], [Transactions])</text>
<text x="800" y="835" text-anchor="middle" fill="#9eb0bc" font-size="23" font-family="Arial">Same formula • New Filter → New result</text>
</svg>